# xmcd
# 
# Track frame offsets:
#     187
#     19022
#     42117
#     61240
#     78145
#     93885
#     109805
#     136535
#     152395
#     170980
#     193382
#     212230
# 
# Disc length: 3063
# 
# Revision: 4
# Processed by: cddbd v1.5.2PL0 Copyright (c) Steve Scherf et al.
# Submitted via: fre:ac v1.0.31
# 
DISCID=950bf50c
DTITLE=Jonny Lang - Lie to Me
DYEAR=1996
DGENRE=Blues
TTITLE0=Lie to Me
TTITLE1=Darker Side
TTITLE2=Good Morning Little Schoolgirl
TTITLE3=Still Wonder
TTITLE4=Matchbox
TTITLE5=Back for a Taste of Your Love
TTITLE6=A Quitter Never Wins
TTITLE7=Hit the Ground Running
TTITLE8=Rack 'Em Up
TTITLE9=When I Come to You
TTITLE10=There's Gotta Be a Change
TTITLE11=Missing Your Love
EXTD=YEAR: 1997
EXTT0=
EXTT1=
EXTT2=
EXTT3=
EXTT4=
EXTT5=
EXTT6=
EXTT7=
EXTT8=
EXTT9=
EXTT10=
EXTT11=
PLAYORDER=
